<?xml version="1.0" encoding="iso-8859-1"?>
<!-- Uploaded to: SVG Repo, www.svgrepo.com, Generator: SVG Repo Mixer Tools -->
<svg fill="#000000" height="800px" width="800px" version="1.1" id="Layer_1" xmlns="http://www.w3.org/2000/svg" xmlns:xlink="http://www.w3.org/1999/xlink" 
	 viewBox="0 0 511.98 511.98" xml:space="preserve">
<g transform="translate(0 -1)">
	<g>
		<g>
			<path d="M179.548,205.795h152.917c0.213-9.267,2.714-19.149,7.535-29.047c11.503-23.595,10.189-45.474,9.865-49.169
				c-0.435-36.011-55.057-114.16-61.304-122.983c-2.15-3.038-6.016-4.309-9.549-3.2c-3.541,1.126-5.948,4.412-5.948,8.132
				c0,76.16-10.607,109.013-17.024,121.941c-6.554-13.09-17.109-45.978-17.109-121.941c0-3.721-2.406-7.006-5.948-8.132
				c-3.55-1.101-7.398,0.162-9.549,3.2c-6.246,8.823-60.868,86.972-61.295,122.982c-0.324,3.695-1.638,25.574,9.856,49.169
				C176.843,186.689,179.335,196.621,179.548,205.795z"/>
			<path d="M366.833,434.891L334.21,222.863H177.786l-32.623,212.028c-0.017,0.137,0.043,0.256,0.026,0.384
				c-0.102,0.998-0.051,1.988,0.188,2.961c0.034,0.136,0.034,0.273,0.077,0.41c0.239,0.802,0.572,1.579,1.05,2.296l36.89,55.236
				c7.202,10.812,19.174,16.802,31.462,16.802c5.692,0,11.452-1.289,16.836-3.977l130.517-65.178
				c0.981-0.486,1.801-1.169,2.492-1.946c0.051-0.051,0.128-0.068,0.171-0.128c0.145-0.162,0.171-0.375,0.299-0.546
				c0.503-0.683,0.905-1.408,1.186-2.202c0.119-0.341,0.205-0.666,0.282-1.015c0.171-0.785,0.205-1.57,0.154-2.389
				C366.774,435.36,366.867,435.13,366.833,434.891z M224.062,493.737c-9.318,4.659-20.693,1.638-26.479-7.031L169.56,444.73
				h152.644L224.062,493.737z"/>
		</g>
	</g>
</g>
</svg>