<?xml version="1.0" ?><!-- Uploaded to: SVG Repo, www.svgrepo.com, Generator: SVG Repo Mixer Tools -->
<svg fill="#000000" width="800px" height="800px" viewBox="0 -0.08 20 20" data-name="Capa 1" id="Capa_1" xmlns="http://www.w3.org/2000/svg"><path d="M13.26,1.92H6.74a1.9,1.9,0,0,0-1.9,1.89V16a1.9,1.9,0,0,0,1.9,1.89h6.52A1.9,1.9,0,0,0,15.16,16V3.81A1.9,1.9,0,0,0,13.26,1.92ZM14.41,16a1.15,1.15,0,0,1-1.15,1.14H6.74A1.15,1.15,0,0,1,5.59,16V3.81A1.15,1.15,0,0,1,6.74,2.67h.75a.61.61,0,0,0,.61.62h3.8a.61.61,0,0,0,.61-.62h.75a1.15,1.15,0,0,1,1.15,1.14Z"/><path d="M11.12,15.74H8.88a.38.38,0,0,0,0,.75h2.24a.38.38,0,1,0,0-.75Z"/><path d="M9.05,10.9l.41.9A.38.38,0,0,0,10,12a.37.37,0,0,0,.18-.5L8.66,8.23A.39.39,0,0,0,8.31,8h0A.37.37,0,0,0,8,8.24L6.5,11.51a.39.39,0,0,0,.19.5l.15,0a.38.38,0,0,0,.35-.22l.41-.92ZM8.32,9.3l.38.85H7.94Z"/><path d="M13.65,9.36a1.48,1.48,0,0,0-1.48-1.48H10.8a.37.37,0,0,0-.37.38s0,.05,0,.08v3.3a.37.37,0,0,0,.37.37.38.38,0,0,0,.38-.37v-.8h1.08l.7,1a.4.4,0,0,0,.31.16.36.36,0,0,0,.22-.07.37.37,0,0,0,.09-.52L13,10.58A1.46,1.46,0,0,0,13.65,9.36Zm-2.46-.73h1a.73.73,0,0,1,0,1.46h-1Z"/></svg>