<?xml version="1.0" encoding="utf-8"?>
<!-- Uploaded to: SVG Repo, www.svgrepo.com, Generator: SVG Repo Mixer Tools -->
<svg width="800px" height="800px" viewBox="0 -266 1556 1556" class="icon"  version="1.1" xmlns="http://www.w3.org/2000/svg"><path d="M1471.900867 717.112195s-159.843902-9.053659-253.502439 82.107317-420.526829 70.556098-420.526829 70.556098l-102.4-41.834147-434.263415-384s20.604878-89.287805 28.409756-128.312195-31.219512-143.609756-70.243902-161.717073L324.895989 30.907317s115.82439-21.853659 128.936585 60.565854 184.819512 134.556098 239.453659 121.443902 184.819512-18.107317 234.146341 106.770732 187.317073 218.536585 226.341464 254.751219z" fill="#C0D36F" /><path d="M1412.895989 668.097561l-228.526829-96.780488a204.17561 204.17561 0 0 1-102.712195-73.365853l-164.52683-221.346342c-45.268293-62.439024-124.878049-119.882927-207.609756-101.463415-160.156098 35.278049-215.726829-43.395122-255.063414-120.195122A98.653659 98.653659 0 0 0 379.530135 2.809756a147.980488 147.980488 0 0 0-124.878048 41.209756L46.41794 252.253659a156.097561 156.097561 0 0 0 6.868293 228.526829l541.346341 480.780488H269.949648a31.219512 31.219512 0 0 0-31.219513 31.219512 31.219512 31.219512 0 0 0 31.219513 31.219512h1147.317073a138.614634 138.614634 0 0 0 138.302439-138.302439v-42.458537c0.312195-59.629268-24.97561-137.990244-142.673171-175.141463zM299.920379 87.102439a86.478049 86.478049 0 0 1 69.931708-23.414634 36.839024 36.839024 0 0 1 29.034146 19.043902c48.078049 93.658537 128.62439 195.746341 324.058537 152.663415 48.078049-10.614634 96.468293 21.853659 130.497561 60.565854a29.034146 29.034146 0 0 0-9.365854 6.243902l-152.35122 152.35122a29.034146 29.034146 0 0 0 0 41.209756l3.121952 3.121951a29.034146 29.034146 0 0 0 41.209756 0l152.351219-152.35122a27.160976 27.160976 0 0 0 1.873171-2.809756l56.819512 76.8a28.097561 28.097561 0 0 0-6.868293 4.370732l-98.341463 98.341463a29.034146 29.034146 0 0 0 0 41.209756l3.121951 3.121952a29.034146 29.034146 0 0 0 41.209756 0l97.717073-97.717073 48.390244 65.560975c2.185366 3.121951 4.995122 5.619512 7.492683 8.741464l-52.44878 52.44878a29.034146 29.034146 0 0 0 0 41.209756l3.121951 3.121951a29.034146 29.034146 0 0 0 41.209756 0l52.760976-52.760975a256 256 0 0 0 78.985366 42.458536l162.029268 68.370732a306.887805 306.887805 0 0 0-178.887805 120.819512 29.034146 29.034146 0 0 1-23.414634 11.239025H739.803306a31.219512 31.219512 0 0 1-20.292683-7.804878l-437.073171-396.487805a31.219512 31.219512 0 0 1-6.556097-35.902439c26.536585-50.887805 52.44878-124.878049 25.287805-184.819513a128.312195 128.312195 0 0 0-58.380488-59.629268z m1193.209756 798.282927a76.17561 76.17561 0 0 1-75.863414 75.863414H763.530135a189.190244 189.190244 0 0 1-124.878048-47.765853L96.056965 432.702439a93.658537 93.658537 0 0 1-4.058537-137.678049l102.712195-102.712195a77.42439 77.42439 0 0 1 48.390244 38.4c17.795122 39.64878-7.180488 98.653659-23.726829 130.497561a93.658537 93.658537 0 0 0 19.980488 111.141464l437.07317 396.487804a93.658537 93.658537 0 0 0 62.439025 24.039025h382.751219a91.785366 91.785366 0 0 0 73.365854-36.214634 241.014634 241.014634 0 0 1 258.809756-97.404878A103.02439 103.02439 0 0 1 1492.505745 842.926829v42.458537zM141.013062 961.24878H32.99355a31.219512 31.219512 0 0 0 0 62.439025h108.019512a31.219512 31.219512 0 1 0 0-62.439025z" fill="#182445" /></svg>